<?xml version="1.0" standalone="no"?>
<!DOCTYPE svg PUBLIC "-//W3C//DTD SVG 20010904//EN"
 "http://www.w3.org/TR/2001/REC-SVG-20010904/DTD/svg10.dtd">
<svg version="1.0" xmlns="http://www.w3.org/2000/svg"
 width="750.000000pt" height="750.000000pt" viewBox="0 0 750.000000 750.000000"
 preserveAspectRatio="xMidYMid meet">

<g transform="translate(0.000000,750.000000) scale(0.100000,-0.100000)"
fill="#000000" stroke="none">
<path d="M1932 7475 c-7 -14 -12 -50 -12 -80 0 -30 -4 -55 -10 -55 -5 0 -10
-18 -10 -40 0 -22 5 -40 10 -40 22 0 8 -18 -30 -36 -39 -19 -40 -20 -40 -71 0
-30 5 -53 12 -55 26 -9 -6 -28 -48 -28 -40 0 -44 -2 -44 -25 0 -20 5 -25 25
-25 14 0 25 -4 25 -9 0 -5 -11 -18 -25 -29 -28 -22 -33 -42 -10 -42 12 0 15
-16 15 -80 0 -64 -3 -80 -15 -80 -11 0 -15 -11 -15 -40 0 -30 4 -40 16 -40 12
0 15 -11 13 -52 -1 -29 3 -66 9 -81 7 -16 12 -46 12 -68 0 -27 4 -39 15 -39
12 0 15 -33 17 -203 l3 -203 -27 4 c-27 4 -28 2 -28 -38 0 -30 -8 -51 -27 -77
-19 -25 -24 -38 -15 -41 15 -5 16 -44 1 -59 -6 -6 -17 -22 -23 -35 -6 -12 -24
-29 -39 -36 -26 -13 -39 -52 -17 -52 6 0 10 -24 10 -53 0 -59 -19 -87 -58 -87
-18 0 -22 -6 -22 -29 0 -41 -22 -131 -32 -131 -4 0 -8 11 -8 24 0 14 -4 28
-10 31 -6 4 -10 -7 -10 -24 0 -24 -4 -31 -19 -31 -21 0 -31 -19 -31 -56 0 -13
-4 -24 -9 -24 -5 0 -12 -11 -15 -25 -4 -14 -11 -25 -16 -25 -6 0 -10 -7 -10
-15 0 -8 7 -15 15 -15 14 0 13 -3 -2 -25 -16 -22 -25 -24 -90 -25 -70 0 -72 1
-115 40 -32 30 -44 37 -46 25 -2 -8 -14 -15 -28 -15 -21 0 -24 -4 -24 -40 0
-29 -4 -40 -15 -40 -8 0 -15 -7 -15 -15 0 -11 -12 -15 -49 -15 -60 0 -61 -3
-61 -121 0 -53 -4 -89 -10 -89 -5 0 -10 -18 -10 -40 0 -29 -4 -40 -15 -40 -11
0 -15 -11 -15 -40 0 -36 3 -40 25 -40 23 0 25 -4 25 -40 0 -29 4 -40 15 -40
23 0 18 -15 -16 -49 -26 -26 -38 -31 -80 -31 l-49 0 0 -80 c0 -79 0 -80 -25
-80 -22 0 -25 -4 -25 -40 0 -29 -4 -40 -15 -40 -12 0 -15 13 -15 60 0 75 -15
85 -105 71 l-60 -9 70 -2 c55 -2 63 -4 40 -10 -16 -4 -48 -9 -70 -10 l-40 -3
50 -7 50 -7 -55 -2 c-70 -4 -109 -14 -92 -25 7 -4 22 -4 35 -1 17 5 19 4 7 -4
-8 -6 -28 -11 -45 -11 -24 0 -27 -2 -15 -11 11 -8 12 -12 3 -16 -7 -2 -13 -16
-13 -29 0 -28 -44 -102 -65 -111 -8 -3 -15 -11 -15 -19 0 -8 -7 -14 -15 -14
-11 0 -15 -11 -15 -40 0 -36 -2 -40 -25 -40 -14 0 -25 -5 -25 -11 0 -15 -47
-59 -54 -51 -3 3 -6 0 -6 -6 0 -7 9 -12 20 -12 24 0 24 1 5 -44 -9 -21 -11
-36 -5 -36 5 0 10 -18 10 -40 0 -36 -3 -40 -24 -40 -13 0 -27 6 -29 13 -4 9
-6 9 -6 0 -1 -7 -7 -11 -13 -9 -7 1 -10 1 -6 -1 5 -3 8 -20 8 -39 0 -27 -9
-44 -40 -75 -38 -39 -51 -69 -30 -69 6 0 10 -4 10 -10 0 -5 -6 -10 -14 -10
-12 0 -33 -79 -27 -104 1 -4 -2 -13 -7 -20 -4 -6 -7 -22 -6 -36 1 -14 -3 -36
-8 -50 -9 -23 -42 -204 -104 -575 -14 -82 -36 -206 -50 -274 l-24 -125 0
-1258 0 -1258 316 0 c296 0 379 8 252 24 -61 8 -109 30 -86 38 24 10 93 -7
143 -35 l48 -27 1401 0 c1167 1 1398 3 1384 14 -10 7 -18 18 -18 25 0 6 -5 11
-11 11 -14 0 -3 48 15 70 7 8 27 41 45 72 18 32 36 60 41 63 8 5 5 -119 -4
-218 l-4 -37 88 0 89 0 7 45 c3 25 3 74 -1 110 -6 60 -8 65 -31 65 -13 0 -24
6 -24 13 0 6 -12 25 -26 42 -14 16 -20 31 -15 33 6 2 11 10 11 17 0 7 7 15 15
19 10 4 14 18 13 49 -2 39 8 61 86 193 49 82 111 187 137 234 27 47 58 93 69
102 11 9 41 44 65 77 25 34 49 61 54 61 5 0 11 14 15 30 3 17 35 90 70 163
109 224 131 314 102 423 -9 34 -16 88 -16 119 0 73 -23 231 -57 382 -14 65
-29 145 -34 178 -5 33 -18 87 -28 120 -47 147 -81 286 -81 326 0 52 -19 78
-98 133 -31 23 -55 48 -59 64 -10 42 6 329 26 458 39 245 148 554 180 505 5
-7 5 -28 1 -45 -4 -17 -7 -134 -6 -261 1 -197 3 -234 18 -260 l17 -30 1 30 c1
17 4 24 7 17 3 -9 9 -6 18 11 8 16 11 60 9 133 -2 60 1 116 6 124 6 10 10 11
10 3 0 -9 7 -10 26 -3 36 14 70 12 84 -4 6 -8 25 -16 42 -18 25 -2 34 -10 42
-35 12 -34 75 -90 113 -100 17 -4 34 1 53 16 16 11 35 21 43 21 7 0 22 7 33
15 10 8 31 15 46 15 16 0 36 8 46 18 13 13 37 18 97 21 44 1 82 7 83 12 6 14
29 11 35 -5 6 -15 40 -10 83 12 10 5 33 14 49 19 22 7 29 14 27 28 -2 11 0 17
4 12 10 -10 54 32 48 47 -5 13 31 56 47 56 6 0 7 5 4 10 -4 6 7 26 24 46 17
19 31 40 31 47 0 7 9 23 20 37 22 28 25 40 9 40 -5 0 -7 -4 -4 -10 3 -5 1 -10
-5 -10 -6 0 -13 7 -16 15 -11 27 -33 16 -55 -27 -12 -24 -29 -50 -38 -58 -31
-27 -76 -57 -99 -64 -12 -4 -20 -11 -17 -16 3 -5 1 -11 -4 -14 -5 -4 -12 -2
-16 4 -10 16 -32 12 -62 -14 -29 -24 -76 -28 -118 -10 -30 13 -181 7 -201 -8
-11 -8 -22 -7 -96 12 -27 7 -48 16 -48 20 0 4 -15 11 -34 14 -19 4 -41 17 -52
32 -11 14 -29 30 -41 35 -13 5 -32 23 -42 41 -11 18 -26 40 -34 48 -18 19 -41
64 -57 115 -7 22 -27 60 -44 85 -17 25 -38 58 -46 74 -8 16 -27 33 -42 38 -16
6 -28 17 -28 26 -1 26 -40 69 -49 53 -11 -18 -23 1 -54 87 -30 82 -36 152 -13
152 8 0 18 -5 21 -11 4 -5 17 -14 29 -19 17 -6 25 -22 36 -75 16 -75 32 -98
25 -33 -3 24 -7 63 -9 88 -3 25 -5 48 -5 53 -1 4 -7 7 -14 7 -12 0 -75 123
-82 163 -3 11 -7 22 -9 25 -3 2 1 17 9 33 20 38 20 99 0 99 -9 0 -15 -9 -16
-22 0 -22 -1 -22 -9 -3 -12 28 -12 105 0 105 6 0 10 7 10 16 0 24 33 13 47
-16 20 -40 44 -69 85 -102 58 -46 57 -26 -2 39 -74 81 -78 89 -86 174 -6 73
-6 76 15 82 13 3 50 0 83 -6 53 -10 61 -9 69 6 5 9 31 26 57 38 41 18 61 20
150 17 86 -4 102 -2 97 9 -3 8 -5 16 -5 19 0 2 -14 11 -30 19 -20 10 -59 16
-109 17 -71 1 -78 2 -74 19 8 30 -47 24 -121 -13 -46 -24 -66 -40 -69 -56 -2
-12 0 -25 5 -28 4 -3 6 -10 3 -15 -6 -9 -61 -7 -71 4 -12 12 19 81 49 108 25
23 34 26 55 18 20 -8 32 -5 61 15 20 14 70 36 111 50 52 17 69 27 57 31 -32
13 -6 25 41 19 59 -7 102 -23 102 -38 0 -6 18 -22 40 -36 29 -18 49 -42 68
-80 24 -48 27 -66 26 -145 -1 -68 -6 -101 -22 -138 -25 -56 -101 -141 -140
-155 -48 -19 -163 -33 -210 -27 -35 5 -43 3 -30 -5 25 -16 158 -24 200 -12 23
6 40 7 44 1 3 -5 0 -9 -5 -9 -6 0 -11 -7 -11 -16 0 -9 -8 -23 -17 -30 -11 -8
-13 -13 -6 -14 7 0 10 -6 7 -13 -4 -12 92 -117 108 -117 4 0 8 -7 8 -16 0 -11
-6 -14 -22 -9 -18 5 -19 4 -8 -4 12 -9 12 -11 -2 -16 -10 -4 -21 -4 -26 -1 -6
3 -16 -1 -23 -10 -8 -10 -21 -13 -37 -9 -37 9 -78 -12 -96 -50 -21 -43 -40
-50 -56 -19 -15 28 -26 30 -38 8 -5 -8 -25 -19 -45 -23 -29 -7 -37 -5 -42 7
-10 28 -25 -7 -25 -60 0 -26 -4 -50 -10 -53 -17 -11 -11 -61 10 -80 20 -18 20
-17 20 13 0 22 5 32 15 32 9 0 18 12 21 29 4 18 16 34 33 42 14 7 29 15 33 17
3 2 5 -12 5 -30 -2 -30 1 -33 27 -34 18 -1 37 -10 48 -25 11 -13 25 -31 32
-40 7 -9 10 -24 6 -35 -10 -25 -2 -38 15 -24 9 8 15 8 20 0 3 -5 3 -10 -1 -10
-3 0 -1 -7 6 -15 7 -8 16 -12 21 -10 4 3 26 -7 47 -22 33 -24 46 -28 95 -25
31 2 57 8 57 13 0 5 -10 9 -22 9 -19 0 -20 2 -8 10 13 9 13 11 0 20 -13 9 -13
11 0 20 13 8 13 10 -2 10 -11 0 -24 14 -33 36 -11 28 -18 34 -28 26 -17 -15
-34 -2 -42 31 -8 31 15 47 39 27 11 -8 20 -9 35 0 15 8 27 8 42 0 11 -7 37 -9
58 -5 29 5 43 2 62 -14 24 -19 24 -19 46 1 15 14 35 21 65 21 24 -1 48 3 54 9
7 5 28 8 48 6 20 -1 41 3 47 9 8 8 20 8 35 3 13 -5 45 -8 72 -6 l49 4 -24 -24
c-30 -30 -30 -48 0 -38 12 4 31 8 43 9 26 2 46 14 39 25 -3 5 14 10 37 12 53
4 66 33 21 45 -57 16 -245 7 -303 -15 -36 -13 -293 -14 -378 -1 -40 6 -89 17
-107 25 -19 8 -58 14 -87 14 l-53 0 29 25 c16 14 24 25 19 25 -6 0 -13 6 -16
14 -4 10 0 12 14 9 10 -3 19 -9 19 -13 0 -14 60 -17 71 -4 5 6 21 15 34 18 14
4 25 11 25 17 0 5 10 0 22 -11 14 -12 28 -18 38 -14 8 4 72 8 142 8 84 1 131
5 139 13 9 9 5 13 -17 18 -79 16 -107 29 -147 65 -23 21 -52 48 -64 58 -11 11
-42 23 -68 26 -58 9 -85 35 -85 81 0 19 4 35 10 35 5 0 20 11 34 25 14 14 29
25 33 25 5 0 14 14 21 30 13 28 49 45 39 18 -2 -7 -9 -12 -16 -11 -7 2 -10
-15 -10 -47 1 -28 3 -50 5 -50 2 0 16 19 30 42 34 53 54 127 54 199 0 31 7 76
15 100 9 24 13 55 10 70 -5 21 -1 31 17 43 57 40 147 0 135 -59 -5 -29 22
-144 43 -185 20 -39 101 -152 134 -188 26 -27 33 -30 42 -18 9 13 18 11 66
-12 48 -24 54 -26 50 -10 -3 14 2 18 22 18 41 0 30 16 -12 17 -46 2 -141 36
-175 63 -34 27 -84 137 -92 204 -6 43 -2 71 14 123 37 118 98 184 184 198 23
4 51 14 62 21 11 8 26 14 35 14 12 0 12 -2 2 -9 -9 -5 9 -10 48 -14 65 -6 72
-9 219 -110 l69 -48 7 -63 c4 -35 4 -73 0 -85 -4 -12 -2 -21 4 -21 6 0 11 8
11 18 0 13 2 14 9 3 6 -10 12 -5 22 18 17 37 30 43 68 30 23 -8 31 -19 39 -52
28 -112 26 -152 -18 -307 -11 -41 -29 -122 -40 -180 -25 -139 -37 -186 -62
-240 -22 -46 -91 -163 -109 -183 -5 -7 -29 -39 -54 -72 -24 -33 -54 -73 -66
-88 -25 -33 -19 -45 16 -29 14 7 29 12 32 12 11 0 -6 -332 -21 -415 -21 -115
-30 -151 -60 -229 -14 -37 -23 -72 -20 -78 3 -5 -1 -17 -10 -27 -9 -10 -19
-29 -21 -41 -3 -13 -17 -36 -32 -52 -20 -21 -23 -28 -11 -28 9 0 25 10 35 23
10 12 28 27 38 33 25 14 52 60 58 99 7 41 24 84 41 101 8 7 17 33 21 56 4 24
15 75 26 115 26 96 28 240 4 360 -16 78 -16 98 -5 137 7 27 18 46 27 46 20 0
80 -134 99 -222 25 -118 32 -271 22 -479 -5 -107 -11 -236 -13 -288 -5 -100
-10 -118 -29 -87 -31 53 -75 102 -96 109 -21 8 -31 3 -63 -27 -21 -20 -43 -36
-48 -36 -6 0 -7 -5 -4 -11 4 -6 13 -8 20 -5 19 7 74 -30 87 -59 8 -19 19 -25
42 -25 38 0 48 -7 71 -46 l18 -32 -52 -152 c-60 -175 -100 -269 -130 -301 -12
-13 -21 -28 -21 -33 0 -6 -9 -22 -19 -35 l-19 -24 -6 21 c-11 34 -25 26 -48
-25 -11 -27 -41 -74 -65 -106 -37 -49 -48 -75 -68 -160 -13 -56 -38 -138 -56
-182 l-31 -80 5 -208 c2 -114 0 -210 -4 -213 -5 -3 -9 -14 -9 -25 0 -11 -12
-32 -26 -46 -17 -17 -24 -32 -20 -46 3 -13 -8 -42 -32 -81 l-37 -60 -7 50 c-4
27 -13 78 -20 114 l-13 65 -23 -23 c-12 -12 -25 -22 -29 -21 -12 1 -32 -61
-33 -101 -1 -46 -25 -129 -32 -110 -8 21 -13 4 -28 -90 -7 -41 -16 -98 -21
-125 -11 -58 -8 -575 4 -575 4 0 7 5 7 10 0 6 5 10 11 10 7 0 10 -22 8 -64 -3
-55 -1 -67 17 -83 15 -14 20 -29 18 -65 -1 -27 1 -48 5 -48 12 0 8 -44 -5 -55
-6 -5 -14 -23 -17 -38 -4 -27 -3 -28 31 -25 l36 3 24 160 c29 199 38 213 83
121 18 -36 36 -66 40 -66 4 0 1 -19 -6 -42 -7 -24 -15 -73 -17 -110 l-6 -68
1154 0 c1147 0 1154 0 1154 20 0 26 16 26 23 0 5 -18 14 -20 82 -20 66 0 76 2
71 16 -3 9 -6 22 -6 30 0 8 -6 14 -14 14 -8 0 -16 15 -19 36 -8 50 -23 64 -71
64 -22 0 -52 7 -66 15 -14 8 -33 18 -43 21 -12 4 -16 12 -12 23 4 9 9 31 11
49 2 18 22 72 44 120 48 106 89 238 136 427 9 39 20 73 24 78 3 4 22 -14 41
-40 30 -42 34 -45 37 -26 2 14 -9 38 -29 62 -29 37 -31 45 -26 91 4 28 13 65
22 82 8 17 15 42 15 55 0 12 4 23 10 23 6 0 10 391 10 1115 l0 1115 -47 46
c-47 45 -159 126 -211 153 -15 7 -61 35 -103 61 -42 27 -108 58 -150 70 -41
13 -144 48 -229 80 -85 32 -188 68 -229 80 l-74 21 7 217 c4 119 13 381 21
582 8 201 15 410 15 465 0 55 2 129 5 165 19 288 43 1280 32 1280 -4 0 -14
-14 -23 -31 -18 -36 -28 -212 -40 -717 -6 -266 -5 -313 7 -310 24 5 24 -77 1
-100 -17 -17 -20 -41 -26 -199 -7 -159 -6 -181 8 -186 23 -9 21 -68 -2 -88
-17 -15 -19 -42 -26 -305 -9 -386 -25 -737 -35 -747 -7 -7 -136 21 -221 48
-41 14 -187 54 -250 69 -14 3 -70 48 -124 101 -54 52 -103 95 -107 95 -5 0
-15 13 -24 30 -8 16 -29 45 -46 65 -30 34 -30 35 -19 97 6 35 12 74 14 88 3
36 16 71 37 101 12 17 15 29 8 36 -6 6 -6 25 1 54 6 24 13 59 15 77 2 18 11
45 21 60 9 14 18 38 19 52 1 14 6 79 10 145 4 72 13 133 22 153 18 37 18 38
58 46 28 6 31 4 48 -39 23 -56 37 -58 37 -5 0 33 3 40 19 40 11 0 23 -4 26
-10 13 -21 20 -8 20 38 0 38 6 57 28 85 15 19 27 39 27 44 1 4 11 21 24 37 18
21 29 26 45 21 18 -5 21 -2 21 22 0 40 16 90 34 109 12 12 16 12 17 2 1 -7 4
3 8 22 9 50 35 47 39 -5 2 -22 8 -44 14 -50 20 -19 3 127 -19 166 -19 32 -19
36 -4 46 14 10 12 16 -21 49 -54 57 -76 132 -46 162 9 9 7 13 -5 18 -9 3 -17
12 -17 19 0 7 -12 38 -26 70 -14 31 -28 77 -31 102 -6 55 -19 93 -32 93 -5 0
-18 15 -29 33 -12 17 -39 46 -61 62 -43 32 -51 49 -26 59 25 9 17 25 -20 40
-27 11 -35 21 -35 40 0 13 -11 38 -25 54 -32 38 -31 46 1 38 14 -4 24 -3 22 1
-2 4 -10 20 -18 36 -8 17 -10 31 -4 37 5 5 104 11 219 15 116 3 244 8 285 12
41 4 96 5 122 4 46 -3 48 -1 112 66 73 75 173 218 187 266 5 18 5 35 -1 42 -5
6 -7 20 -4 32 5 17 -30 264 -52 376 -5 26 -7 27 -78 27 l-73 0 19 -122 c10
-68 22 -147 27 -176 7 -48 6 -56 -18 -86 -51 -64 -141 -166 -236 -267 l-60
-64 -95 -6 c-52 -4 -172 -7 -266 -8 -181 -1 -201 4 -192 46 2 10 -3 23 -11 29
-8 6 -11 16 -7 22 9 14 59 5 108 -19 30 -15 60 -19 150 -19 62 0 118 4 124 8
6 4 26 41 43 82 53 125 96 205 111 205 8 0 18 -16 23 -35 5 -19 18 -64 29 -99
l20 -64 31 34 c17 19 50 55 73 80 l42 46 -13 79 c-7 43 -21 122 -29 174 -9 52
-19 110 -22 128 -5 31 -7 32 -53 32 l-47 0 7 -62 c17 -148 19 -208 6 -208 -12
0 -136 129 -213 222 l-39 47 -632 0 c-348 1 -633 -1 -633 -4 0 -3 11 -33 25
-67 14 -34 25 -67 25 -75 0 -20 -27 -16 -60 9 -16 12 -33 19 -36 15 -4 -4 -1
-34 6 -67 14 -65 9 -145 -9 -163 -23 -23 -29 1 -67 246 l-17 107 -127 0 -127
0 3 -27 4 -28 -11 28 c-20 51 -29 27 -30 -80 -1 -131 -4 -150 -29 -185 -12
-16 -16 -29 -10 -33 16 -10 12 -25 -6 -25 -9 0 -14 6 -11 14 7 17 -30 49 -49
42 -8 -3 -13 0 -11 7 2 13 -6 13 -36 2 -17 -7 -17 0 -12 126 4 74 8 140 11
147 2 9 -23 12 -107 12 l-110 0 4 -192 c3 -106 8 -210 12 -230 9 -45 -9 -104
-36 -118 -10 -6 -45 -13 -76 -16 -61 -6 -91 -20 -134 -63 -39 -38 -68 -61 -79
-61 -6 0 -10 -5 -10 -11 0 -6 -6 -9 -14 -6 -8 3 -31 -9 -51 -28 -20 -18 -52
-36 -71 -40 -19 -3 -34 -10 -34 -15 0 -5 -15 -29 -34 -54 -58 -75 -55 -81 44
-81 98 0 94 7 55 -102 -14 -40 -27 -95 -29 -123 -6 -69 -33 -104 -93 -120 -26
-6 -54 -14 -61 -16 -9 -2 -10 -15 -6 -42 5 -29 1 -47 -12 -68 -16 -23 -19 -50
-21 -149 -2 -140 7 -218 38 -313 6 -20 13 -43 15 -50 2 -7 15 -17 29 -22 14
-5 25 -14 25 -19 0 -11 66 -35 78 -27 19 11 35 -15 40 -64 4 -49 4 -52 -16
-46 -17 6 -19 3 -15 -13 3 -14 0 -23 -11 -27 -28 -11 -17 -24 22 -24 l37 -1
-36 -32 c-53 -47 -67 -108 -60 -263 1 -25 55 -84 76 -84 9 0 18 -8 21 -17 3
-10 17 -43 30 -74 30 -71 30 -75 -3 -54 -16 10 -22 12 -15 4 6 -7 12 -21 12
-31 0 -9 8 -22 19 -27 10 -6 26 -26 35 -45 9 -19 24 -42 32 -51 20 -20 25
-136 6 -143 -6 -2 -12 -8 -12 -13 0 -6 4 -8 9 -5 5 3 12 -10 15 -29 7 -38 6
-483 -1 -551 l-5 -41 -91 -31 c-51 -17 -121 -36 -157 -42 -36 -6 -114 -25
-175 -41 -60 -16 -118 -29 -128 -29 -10 0 -50 -16 -88 -35 -57 -28 -82 -35
-130 -35 -48 0 -73 -7 -127 -34 -37 -18 -92 -39 -122 -46 -30 -7 -79 -25 -108
-40 -28 -16 -54 -25 -57 -21 -6 10 -23 471 -35 932 -16 647 -29 1127 -34 1274
-3 77 -8 285 -12 461 l-7 322 84 6 c75 6 257 16 582 33 81 4 107 9 107 19 0 8
5 14 10 14 6 0 10 -6 10 -14 0 -8 5 -18 11 -22 25 -15 27 16 4 91 -13 44 -46
177 -74 295 -28 118 -68 287 -89 375 l-38 160 -555 3 -556 2 -11 -25z m3615
-21 c3 -9 15 -14 32 -12 14 1 31 -1 38 -5 6 -4 15 -3 18 3 11 18 154 9 165 -9
8 -14 9 -14 10 2 0 9 3 17 8 17 4 1 45 3 92 6 98 7 112 -1 114 -63 1 -35 0
-36 -44 -40 -57 -6 -65 -13 -14 -13 64 -1 103 -51 104 -136 0 -30 -44 -74 -74
-74 -23 0 -24 -2 -13 -30 9 -24 17 -30 42 -30 37 0 66 -35 37 -44 -9 -3 -73
-6 -142 -6 -69 0 -146 -2 -172 -6 -66 -9 -158 4 -158 22 0 8 -11 19 -24 24
-30 11 -42 29 -24 35 42 13 135 12 167 -3 31 -14 35 -14 45 0 9 12 35 18 104
21 51 2 96 7 100 11 4 4 -93 5 -216 2 -177 -4 -229 -2 -256 9 -18 8 -36 12
-38 9 -3 -2 -11 2 -18 11 -7 8 -21 15 -32 15 -10 0 -31 8 -45 18 -15 9 -52 19
-82 22 -50 5 -55 7 -62 34 -8 31 14 75 39 76 18 0 15 17 -8 40 -16 16 -20 17
-20 5 0 -23 -18 -18 -26 8 -3 12 -13 29 -21 39 -8 9 -11 18 -6 21 4 3 82 5
172 6 137 0 166 3 173 16 11 19 27 19 35 -1z m-445 -19 c10 -10 -23 -88 -44
-107 -15 -13 -24 -15 -34 -7 -16 13 -2 51 35 92 25 27 33 31 43 22z m-76 -34
c-4 -6 -14 -11 -22 -11 -12 0 -13 4 -3 21 7 14 14 18 21 11 6 -6 7 -15 4 -21z
m114 -92 c0 -24 -23 -21 -28 4 -2 10 3 17 12 17 10 0 16 -9 16 -21z m-120 -23
c0 -3 -4 -8 -10 -11 -5 -3 -10 -1 -10 4 0 6 5 11 10 11 6 0 10 -2 10 -4z
m-805 -96 c3 -5 1 -10 -4 -10 -6 0 -11 5 -11 10 0 6 2 10 4 10 3 0 8 -4 11
-10z m1833 -212 c-2 -19 -9 -23 -38 -23 -62 0 -37 39 28 44 8 1 12 -8 10 -21z
m574 17 c2 -3 -27 -38 -66 -79 -39 -41 -72 -73 -74 -72 -9 10 24 64 67 107 46
46 61 56 73 44z m-3475 -47 c-3 -7 -5 -2 -5 12 0 14 2 19 5 13 2 -7 2 -19 0
-25z m3498 -29 c-23 -44 -108 -129 -129 -129 -26 0 -19 11 64 97 77 80 94 88
65 32z m-1636 -493 c6 -4 11 -14 11 -22 0 -19 24 -44 42 -44 15 0 58 -52 58
-69 0 -6 6 -8 13 -5 7 2 21 -1 31 -9 22 -16 25 -123 7 -232 -7 -38 -16 -95
-21 -125 -16 -96 -41 -160 -78 -201 -33 -37 -12 -45 37 -14 23 14 42 25 45 25
2 0 4 -18 4 -41 1 -22 4 -53 7 -69 7 -34 -14 -50 -65 -50 -60 0 -136 -59 -123
-96 2 -7 22 -9 53 -6 28 2 50 2 50 -2 0 -9 -147 -76 -187 -86 -26 -6 -32 -4
-36 11 -8 30 -48 9 -61 -31 -14 -44 -33 -49 -41 -11 -8 40 -79 76 -129 67 -25
-5 -35 -3 -40 9 -3 8 -10 15 -15 15 -13 0 -55 44 -59 61 -1 8 -17 27 -34 43
-31 28 -32 29 -127 22 -53 -3 -107 -8 -121 -10 -14 -1 -35 -4 -48 -4 -19 -2
-22 -6 -17 -24 7 -22 7 -23 -8 -3 -30 41 -29 77 3 154 18 44 30 94 32 125 2
58 -11 156 -22 171 -4 6 -12 25 -18 43 -10 29 -8 40 13 82 19 37 23 55 16 73
-13 33 -2 79 20 84 10 3 21 14 25 25 3 11 8 17 11 14 3 -3 18 3 33 14 31 22
90 42 175 59 33 7 76 16 95 21 61 15 153 29 229 35 40 3 80 9 88 13 15 9 133
-1 152 -12z m-448 -1022 c25 -13 29 -19 17 -22 -15 -3 -108 43 -108 53 0 7 56
-13 91 -31z m1116 -60 c10 -27 -14 -64 -41 -64 -28 0 -66 35 -66 60 0 23 98
26 107 4z m-106 -174 l-10 -25 0 27 c-1 14 2 35 6 45 7 17 8 17 11 -2 1 -12
-2 -32 -7 -45z m-4266 0 c-3 -5 -10 -10 -16 -10 -5 0 -9 5 -9 10 0 6 7 10 16
10 8 0 12 -4 9 -10z m2364 -9 c10 -7 14 -32 15 -88 1 -77 20 -133 46 -133 6 0
10 -11 10 -25 0 -14 -4 -25 -10 -25 -5 0 -10 11 -10 24 0 16 -7 26 -21 29 -20
5 -20 5 -4 -13 9 -10 14 -24 10 -30 -4 -7 2 -25 14 -41 21 -28 21 -28 1 -39
-11 -6 -20 -7 -20 -3 0 4 -7 -1 -15 -11 -17 -23 -20 -9 -6 28 6 13 7 26 3 28
-17 7 -62 117 -63 153 -3 90 9 155 29 155 4 0 13 -4 21 -9z m-96 -98 c3 -35 2
-63 -2 -63 -12 0 -41 69 -41 96 0 14 5 35 11 47 12 21 12 21 19 2 4 -11 10
-48 13 -82z m-2503 -3 c0 -29 -4 -40 -15 -40 -11 0 -15 11 -15 40 0 29 4 40
15 40 11 0 15 -11 15 -40z m2860 14 c0 -8 -4 -14 -10 -14 -5 0 -10 9 -10 21 0
11 5 17 10 14 6 -3 10 -13 10 -21z m-1545 -151 c3 -21 8 -49 11 -63 4 -19 2
-22 -6 -10 -12 19 -13 0 -1 -32 5 -13 11 -102 15 -198 8 -227 15 -291 33 -312
13 -15 14 -27 4 -80 -12 -64 -15 -118 -8 -173 2 -16 5 -40 5 -53 2 -19 6 -22
22 -17 23 7 27 -10 5 -22 -15 -9 -17 -23 -29 -234 -1 -19 -14 -61 -30 -92 -26
-54 -30 -57 -64 -57 l-37 -1 35 -29 c39 -34 50 -86 38 -175 -7 -57 -25 -127
-27 -106 -1 15 -15 7 -17 -10 -3 -22 -5 -23 -12 -12 -10 15 -82 -6 -82 -25 0
-7 -4 -11 -9 -8 -10 7 -17 -28 -27 -132 -4 -40 -12 -76 -18 -79 -19 -13 -34
-11 -40 3 -3 8 0 14 7 14 8 0 8 3 -2 9 -14 9 -3 172 45 666 9 88 17 228 19
310 4 159 11 215 24 215 5 0 12 8 16 18 8 20 39 227 60 392 23 188 47 330 56
330 4 0 11 -17 14 -37z m1380 -183 c1 -32 -2 -57 -7 -54 -4 3 -6 10 -3 15 4 5
0 9 -8 9 -24 0 -49 36 -42 60 6 19 44 43 54 34 3 -2 5 -31 6 -64z m655 -371
c0 -18 -20 -49 -32 -49 -9 0 -9 3 0 12 7 7 12 20 12 30 0 10 5 18 10 18 6 0
10 -5 10 -11z m-3515 -79 c-3 -5 -10 -10 -16 -10 -5 0 -9 5 -9 10 0 6 7 10 16
10 8 0 12 -4 9 -10z m2905 -60 c0 -26 6 -42 17 -48 10 -6 16 -21 15 -41 0 -24
3 -31 19 -31 21 0 25 -8 33 -53 6 -33 -10 -73 -32 -82 -12 -4 -13 -3 -2 10 7
9 10 18 6 22 -10 10 -18 -4 -18 -32 0 -25 -27 -45 -59 -45 -10 0 -12 136 -2
258 6 83 23 114 23 42z m-1330 -370 c0 -5 -4 -10 -9 -10 -6 0 -13 5 -16 10 -3
6 1 10 9 10 9 0 16 -4 16 -10z m2490 -187 c0 -5 -12 -9 -27 -10 -19 -1 -22 1
-12 8 17 11 39 12 39 2z m-4745 -76 c0 -13 -5 -24 -11 -24 -6 0 -9 11 -6 24 2
13 7 23 11 23 3 0 6 -10 6 -23z m5345 -918 c0 -18 -27 -39 -49 -39 -16 0 -13
21 4 40 20 22 45 21 45 -1z m-270 -486 c0 -37 -62 -273 -79 -298 -3 -5 -8 37
-11 95 -4 78 -2 113 8 135 20 41 82 93 82 68z m-1432 -872 c3 -8 -1 -12 -9 -9
-7 2 -15 10 -17 17 -3 8 1 12 9 9 7 -2 15 -10 17 -17z m1985 -156 c-3 -9 -8
-14 -10 -11 -3 3 -2 9 2 15 9 16 15 13 8 -4z m-5488 -1039 c-22 -14 -42 -23
-44 -20 -8 7 21 33 42 37 42 8 42 7 2 -17z m6945 11 c0 -2 -10 -12 -22 -23
-18 -16 -21 -17 -15 -2 4 11 0 18 -11 21 -9 3 -2 5 16 6 17 0 32 -1 32 -2z
m-63 -83 c-3 -3 -12 -4 -19 -1 -8 3 -5 6 6 6 11 1 17 -2 13 -5z"/>
<path d="M5590 7334 c-45 -12 -45 -12 32 -10 43 0 77 5 75 10 -4 13 -57 13
-107 0z"/>
<path d="M5840 7338 c0 -5 18 -8 41 -8 24 0 38 4 34 10 -7 11 -75 9 -75 -2z"/>
<path d="M5758 7333 c12 -2 32 -2 45 0 12 2 2 4 -23 4 -25 0 -35 -2 -22 -4z"/>
<path d="M5295 7320 c3 -5 13 -10 21 -10 8 0 12 5 9 10 -3 6 -13 10 -21 10 -8
0 -12 -4 -9 -10z"/>
<path d="M5386 7321 c5 -6 32 -6 64 -2 l55 9 -64 1 c-40 1 -61 -3 -55 -8z"/>
<path d="M5790 7050 c0 -5 5 -10 10 -10 6 0 10 5 10 10 0 6 -4 10 -10 10 -5 0
-10 -4 -10 -10z"/>
<path d="M3802 4100 c0 -14 2 -19 5 -12 2 6 2 18 0 25 -3 6 -5 1 -5 -13z"/>
<path d="M3843 4070 c2 -8 12 -16 23 -17 13 -2 15 -1 4 4 -8 3 -19 11 -23 17
-6 7 -7 6 -4 -4z"/>
<path d="M6105 7490 c3 -5 24 -10 46 -10 28 0 39 -4 39 -15 0 -9 9 -15 23 -15
13 0 29 -6 36 -12 10 -11 12 -6 9 22 l-3 35 -78 3 c-53 2 -77 -1 -72 -8z"/>
<path d="M7425 7491 c15 -6 4 -10 -40 -15 -33 -3 -76 -7 -95 -7 -19 0 -40 -5
-47 -11 -7 -6 -22 -8 -34 -5 -12 3 -30 0 -40 -6 -16 -9 -21 -9 -28 1 -6 10
-24 12 -66 8 -47 -5 -60 -3 -70 11 -11 14 -16 15 -28 5 -12 -10 -16 -10 -20 0
-3 10 -8 11 -26 1 -11 -7 -28 -13 -36 -13 -8 0 -15 -9 -15 -20 0 -11 5 -20 11
-20 13 0 -9 -23 -37 -38 -22 -12 -38 -61 -28 -87 4 -9 20 -23 36 -31 35 -18
228 -32 228 -16 0 20 119 29 224 16 32 -4 46 -3 42 4 -3 6 1 8 12 5 10 -2 44
5 75 17 l57 21 0 95 0 94 -47 -1 c-35 0 -42 -3 -28 -8z"/>
<path d="M6158 7453 c7 -3 16 -2 19 1 4 3 -2 6 -13 5 -11 0 -14 -3 -6 -6z"/>
<path d="M6440 7426 c0 -13 20 -26 41 -26 15 0 10 27 -7 34 -24 9 -34 7 -34
-8z"/>
<path d="M4755 7420 c3 -5 10 -10 16 -10 5 0 9 5 9 10 0 6 -7 10 -16 10 -8 0
-12 -4 -9 -10z"/>
<path d="M6255 7347 c-4 -10 -5 -21 -1 -24 10 -10 18 4 13 24 -4 17 -4 17 -12
0z"/>
<path d="M6470 7260 c0 -23 10 -26 28 -8 18 18 15 28 -8 28 -13 0 -20 -7 -20
-20z"/>
<path d="M4250 7250 c0 -5 5 -10 10 -10 6 0 10 5 10 10 0 6 -4 10 -10 10 -5 0
-10 -4 -10 -10z"/>
<path d="M6482 7188 c2 -21 8 -33 18 -33 10 0 16 12 18 33 3 27 0 32 -18 32
-18 0 -21 -5 -18 -32z"/>
<path d="M6215 7020 c-3 -5 1 -10 9 -10 8 0 18 5 21 10 3 6 -1 10 -9 10 -8 0
-18 -4 -21 -10z"/>
<path d="M6172 6922 c-17 -36 -15 -42 10 -42 12 0 29 -7 39 -16 31 -28 28 0
-5 42 l-32 41 -12 -25z"/>
<path d="M1680 6844 c0 -14 3 -14 15 -4 8 7 15 14 15 16 0 2 -7 4 -15 4 -8 0
-15 -7 -15 -16z"/>
<path d="M5950 6605 c-17 -21 -8 -50 17 -53 30 -4 49 31 27 52 -19 20 -28 20
-44 1z"/>
<path d="M3022 6498 c-19 -19 -14 -46 9 -59 18 -9 25 -8 40 8 17 17 18 20 3
41 -17 25 -34 28 -52 10z"/>
<path d="M4398 5448 c5 -5 16 -8 23 -6 8 3 3 7 -10 11 -17 4 -21 3 -13 -5z"/>
<path d="M5045 5348 c-11 -7 -26 -18 -33 -25 -11 -11 -9 -13 12 -13 14 0 29 6
33 13 4 8 17 19 28 25 l20 11 -20 0 c-11 0 -29 -5 -40 -11z"/>
<path d="M5055 5294 c-62 -33 -79 -47 -45 -40 48 11 201 25 215 20 23 -9 36 5
25 27 -17 31 -130 27 -195 -7z"/>
<path d="M1090 5220 c0 -29 4 -40 15 -40 11 0 15 11 15 40 0 29 -4 40 -15 40
-11 0 -15 -11 -15 -40z"/>
<path d="M5486 5015 c-49 -85 -151 -157 -246 -177 -25 -5 -19 -6 22 -3 31 2
74 11 94 21 67 32 184 168 184 214 0 24 -18 6 -54 -55z"/>
<path d="M3940 4990 c0 -5 5 -10 11 -10 5 0 7 5 4 10 -3 6 -8 10 -11 10 -2 0
-4 -4 -4 -10z"/>
<path d="M4905 4705 l-30 -14 32 -1 c39 0 65 9 57 21 -7 12 -23 10 -59 -6z"/>
<path d="M5220 4713 c0 -15 110 -127 117 -119 6 5 -10 25 -72 90 -21 23 -45
38 -45 29z"/>
<path d="M720 4660 c0 -29 -4 -40 -15 -40 -11 0 -15 -11 -15 -39 0 -46 12 -52
100 -44 l60 6 0 38 c0 28 4 39 15 39 9 0 15 9 15 25 0 32 -13 32 -39 -1 -15
-20 -27 -25 -53 -22 -30 3 -33 6 -36 41 -5 53 -32 51 -32 -3z"/>
<path d="M5681 4654 c0 -11 3 -14 6 -6 3 7 2 16 -1 19 -3 4 -6 -2 -5 -13z"/>
<path d="M4142 4635 c-31 -35 -10 -40 23 -5 20 21 24 30 14 30 -9 0 -25 -11
-37 -25z"/>
<path d="M3688 4613 c7 -3 16 -2 19 1 4 3 -2 6 -13 5 -11 0 -14 -3 -6 -6z"/>
<path d="M4883 4581 c-19 -16 -20 -21 -9 -30 10 -8 16 -9 21 -1 3 5 22 10 41
10 24 0 34 4 34 16 0 11 -6 13 -19 9 -11 -3 -22 -1 -26 5 -9 14 -16 12 -42 -9z"/>
<path d="M5025 4550 c-3 -5 -1 -10 4 -10 6 0 11 5 11 10 0 6 -2 10 -4 10 -3 0
-8 -4 -11 -10z"/>
<path d="M5191 4518 c-12 -20 -11 -24 13 -45 15 -13 31 -21 36 -18 5 3 20 -1
32 -9 13 -8 37 -17 54 -21 26 -5 32 -3 37 14 11 42 -2 58 -44 58 -21 0 -39 -3
-39 -8 0 -14 -64 18 -70 35 -4 13 -7 12 -19 -6z"/>
<path d="M3681 4474 c0 -11 3 -14 6 -6 3 7 2 16 -1 19 -3 4 -6 -2 -5 -13z"/>
<path d="M3680 4416 c0 -31 6 -34 13 -6 3 11 1 23 -4 26 -5 3 -9 -6 -9 -20z"/>
<path d="M5046 4323 c-13 -14 -5 -33 14 -33 11 0 20 6 20 14 0 15 -24 28 -34
19z"/>
<path d="M4918 4303 c7 -3 16 -2 19 1 4 3 -2 6 -13 5 -11 0 -14 -3 -6 -6z"/>
<path d="M4814 4278 c-10 -15 1 -19 26 -10 l24 9 -22 5 c-12 4 -25 2 -28 -4z"/>
<path d="M4573 4273 c9 -2 23 -2 30 0 6 3 -1 5 -18 5 -16 0 -22 -2 -12 -5z"/>
<path d="M4706 4270 c13 -13 73 -17 74 -5 0 5 -19 11 -42 12 -27 2 -38 -1 -32
-7z"/>
<path d="M273 4055 c-3 -9 -3 -18 -1 -21 3 -3 8 4 11 16 6 23 -1 27 -10 5z"/>
<path d="M305 3980 c-4 -23 -5 -43 -2 -46 2 -3 7 14 11 37 4 23 5 44 2 46 -2
2 -7 -14 -11 -37z"/>
<path d="M5292 4008 c-7 -7 -12 -16 -12 -21 0 -5 7 -1 16 8 9 9 14 18 12 20
-2 3 -10 -1 -16 -7z"/>
<path d="M232 3810 c0 -19 2 -27 5 -17 2 9 2 25 0 35 -3 9 -5 1 -5 -18z"/>
<path d="M4000 3001 c0 -6 5 -13 10 -16 6 -3 10 -14 10 -24 0 -20 36 -63 68
-80 18 -10 23 -8 33 11 7 12 8 23 3 25 -33 12 -60 32 -70 52 -17 33 -54 55
-54 32z"/>
<path d="M4781 2925 c-13 -14 -31 -25 -41 -25 -19 0 -34 -25 -25 -41 4 -5 -2
-6 -11 -2 -12 4 -15 3 -10 -5 4 -7 13 -12 19 -12 13 0 107 90 107 103 0 14
-15 6 -39 -18z"/>
<path d="M4761 1194 c0 -11 3 -14 6 -6 3 7 2 16 -1 19 -3 4 -6 -2 -5 -13z"/>
<path d="M4521 464 c0 -11 3 -14 6 -6 3 7 2 16 -1 19 -3 4 -6 -2 -5 -13z"/>
<path d="M3911 171 c-10 -6 -16 -35 -19 -90 l-5 -81 67 0 c52 0 66 3 66 15 0
8 5 15 11 15 6 0 9 -7 5 -15 -3 -8 -1 -15 4 -15 9 0 19 147 10 159 -9 12 -45
6 -42 -6 1 -7 -2 -13 -8 -13 -5 0 -10 5 -10 10 0 6 -9 10 -19 10 -11 0 -23 5
-26 10 -8 12 -16 12 -34 1z m89 -63 c0 -16 -3 -19 -11 -11 -6 6 -8 16 -5 22
11 17 16 13 16 -11z"/>
<path d="M4702 25 c-6 -14 -8 -25 -3 -25 8 0 23 41 17 47 -1 2 -8 -8 -14 -22z"/>
<path d="M4240 20 c0 -11 7 -20 15 -20 13 0 14 4 5 20 -6 11 -13 20 -15 20 -3
0 -5 -9 -5 -20z"/>
<path d="M4366 15 c-19 -14 -18 -15 12 -15 22 0 32 5 32 15 0 19 -19 19 -44 0z"/>
<path d="M4720 10 c0 -5 5 -10 10 -10 6 0 10 5 10 10 0 6 -4 10 -10 10 -5 0
-10 -4 -10 -10z"/>
</g>
</svg>
